<svg width="500" height="404" viewBox="0 0 500 404" fill="none" xmlns="http://www.w3.org/2000/svg">
<g clip-path="url(#clip0)">
<path opacity="0.1" d="M257.203 403.317C381.994 403.317 483.158 313.031 483.158 201.659C483.158 90.2856 381.994 0 257.203 0C132.411 0 31.2476 90.2856 31.2476 201.659C31.2476 313.031 132.411 403.317 257.203 403.317Z" fill="black"/>
<path opacity="0.1" d="M83.314 317.727C129.327 317.727 166.628 311.945 166.628 304.813C166.628 297.681 129.327 291.899 83.314 291.899C37.3009 291.899 0 297.681 0 304.813C0 311.945 37.3009 317.727 83.314 317.727Z" fill="#004A62"/>
<path opacity="0.1" d="M123.358 379.248C141.255 379.248 155.763 376.251 155.763 372.554C155.763 368.857 141.255 365.86 123.358 365.86C105.461 365.86 90.9527 368.857 90.9527 372.554C90.9527 376.251 105.461 379.248 123.358 379.248Z" fill="#004A62"/>
<path opacity="0.1" d="M344.784 353.493C362.681 353.493 377.189 350.496 377.189 346.799C377.189 343.102 362.681 340.105 344.784 340.105C326.887 340.105 312.379 343.102 312.379 346.799C312.379 350.496 326.887 353.493 344.784 353.493Z" fill="#004A62"/>
<path opacity="0.1" d="M234.824 347.875C263.927 347.875 287.52 343.878 287.52 338.947C287.52 334.017 263.927 330.02 234.824 330.02C205.721 330.02 182.128 334.017 182.128 338.947C182.128 343.878 205.721 347.875 234.824 347.875Z" fill="#004A62"/>
<path opacity="0.1" d="M390.093 311.972C450.796 311.972 500.005 304.265 500.005 294.757C500.005 285.249 450.796 277.542 390.093 277.542C329.391 277.542 280.182 285.249 280.182 294.757C280.182 304.265 329.391 311.972 390.093 311.972Z" fill="#004A62"/>
<path d="M22.7805 264.711C20.3116 269.514 19.1585 274.885 19.4384 280.278C19.7183 285.671 21.4213 290.894 24.3742 295.416C25.3429 296.869 26.2342 297.915 26.9462 298.191C30.3611 299.533 37.2006 302.832 37.2006 302.832L53.6697 296.36C53.6697 296.36 56.3435 282.216 58.872 270.073C60.5964 261.79 62.2626 254.442 62.9456 253.153C64.6507 249.981 62.9456 215.439 62.9456 215.439C62.9456 215.439 46.4766 214.335 41.9476 227.031L39.9665 230.906L22.7805 264.711Z" fill="#A8A8A8"/>
<path opacity="0.1" d="M44.6456 268.528C54.6578 280.003 58.8817 270.078 58.8817 270.078C60.6061 261.795 62.2723 254.447 62.9553 253.158C64.6604 249.985 62.9553 215.444 62.9553 215.444C62.9553 215.444 46.4863 214.34 41.9573 227.035L39.9762 230.91C38.7071 241.068 37.4525 260.269 44.6456 268.528Z" fill="white"/>
<path d="M46.8447 300.512L104.971 293.798L115.341 225.558L107.499 207.834C104.186 200.286 99.5981 193.365 93.9365 187.374C89.9888 183.213 85.2176 179.212 80.1994 177.202C79.5136 176.926 78.8135 176.686 78.102 176.485C77.2841 176.237 76.4191 176.185 75.5774 176.334C74.7357 176.483 73.9411 176.828 73.2582 177.342C66.0893 182.424 63.5269 204.027 62.6986 214.427C62.3578 218.7 61.7805 222.952 60.9694 227.161L46.8447 300.512Z" fill="#A8A8A8"/>
<path opacity="0.1" d="M85.5421 224.822L73.4325 254.611C79.778 249.971 89.1798 224.701 89.1798 224.701L97.6033 253.512L90.8897 223.146C91.8725 216.552 92.1583 209.872 91.7422 203.218C91.2094 195.594 84.0551 183.359 80.1703 177.197C79.4845 176.921 78.7844 176.681 78.0729 176.48C77.255 176.232 76.3901 176.18 75.5484 176.329C74.7067 176.478 73.912 176.824 73.2291 177.338C76.2807 183.465 83.9098 198.786 86.2348 203.339C89.1847 209.074 85.5421 224.822 85.5421 224.822Z" fill="white"/>
<path d="M95.4284 302.832H126.967C128.264 302.832 129.548 302.568 130.74 302.057C131.932 301.546 133.008 300.797 133.902 299.857C134.796 298.917 135.489 297.805 135.94 296.588C136.391 295.372 136.589 294.076 136.524 292.781C135.826 279.257 134.058 255.144 129.854 239.838C127.582 231.579 124.942 227.244 122.52 225.108C121.384 224.011 119.918 223.322 118.349 223.146C117.16 223.043 115.969 223.332 114.959 223.969C109.103 229.583 102.263 259.126 102.263 259.126L95.4284 302.832Z" fill="#A8A8A8"/>
<path opacity="0.1" d="M124.545 276.631C125.843 280.23 126.356 284.382 124.545 288.426L117.516 291.899C117.516 291.899 98.6253 283.892 100.921 267.481C100.921 267.481 101.541 264.091 108.047 264.352C111.705 264.529 115.228 265.791 118.166 267.978C121.105 270.165 123.325 273.178 124.545 276.631V276.631Z" fill="white"/>
<path opacity="0.1" d="M117.037 233.492C116.819 227.738 119.943 225.742 122.525 225.108C121.389 224.011 119.923 223.322 118.354 223.146C116.557 224.65 115.284 226.685 114.717 228.958L108.129 261.068C108.129 261.068 117.405 243.136 117.037 233.492Z" fill="white"/>
<path d="M87.1309 258.884L102.747 280.245L105.455 297.876L95.4187 302.832L80.9502 306.029C79.5567 306.338 78.1239 306.431 76.7021 306.305L37.22 302.832L42.5918 290.378L61.1437 264.333L87.1309 258.884Z" fill="#A8A8A8"/>
<path opacity="0.1" d="M81.0858 251.55C81.0858 251.55 91.7422 252.281 87.7412 270.591C83.7402 288.901 42.5724 290.369 42.5724 290.369C42.5724 290.369 51.3204 274.868 64.7766 263.761C66.2879 262.516 67.7459 261.218 69.136 259.833C72.2312 256.738 78.1504 251.298 81.0858 251.55Z" fill="white"/>
<path opacity="0.1" d="M90.6718 265.355C90.6718 265.355 105.111 278.496 103.75 298.719Z" fill="black"/>
<path opacity="0.1" d="M114.964 223.969C114.964 223.969 99.8121 244.12 98.1119 275.125Z" fill="black"/>
<path opacity="0.1" d="M62.9602 215.43C62.9602 215.43 70.2937 248.731 51.984 273.832Z" fill="black"/>
<path d="M196.529 338.763H275.551C276.315 338.759 277.065 338.557 277.728 338.178C278.391 337.798 278.944 337.254 279.334 336.597C279.724 335.94 279.938 335.194 279.954 334.43C279.97 333.666 279.788 332.911 279.426 332.239L239.935 258.864C239.556 258.161 238.994 257.573 238.308 257.163C237.623 256.754 236.839 256.537 236.04 256.537C235.241 256.537 234.457 256.754 233.772 257.163C233.086 257.573 232.524 258.161 232.146 258.864L192.634 332.239C192.272 332.913 192.09 333.669 192.107 334.435C192.124 335.2 192.34 335.948 192.732 336.605C193.124 337.262 193.68 337.807 194.346 338.185C195.011 338.563 195.763 338.762 196.529 338.763V338.763ZM241.068 325.356H231.012V315.305H241.068V325.356ZM241.068 308.601H231.012V288.494H241.068V308.601Z" fill="#464353"/>
<path opacity="0.1" d="M196.529 338.763H275.551C276.315 338.759 277.065 338.557 277.728 338.178C278.391 337.798 278.944 337.254 279.334 336.597C279.724 335.94 279.938 335.194 279.954 334.43C279.97 333.666 279.788 332.911 279.426 332.239L239.935 258.864C239.556 258.161 238.994 257.573 238.308 257.163C237.623 256.754 236.839 256.537 236.04 256.537C235.241 256.537 234.457 256.754 233.772 257.163C233.086 257.573 232.524 258.161 232.146 258.864L192.634 332.239C192.272 332.913 192.09 333.669 192.107 334.435C192.124 335.2 192.34 335.948 192.732 336.605C193.124 337.262 193.68 337.807 194.346 338.185C195.011 338.563 195.763 338.762 196.529 338.763V338.763ZM241.068 325.356H231.012V315.305H241.068V325.356ZM241.068 308.601H231.012V288.494H241.068V308.601Z" fill="black"/>
<path d="M196.529 341.185H275.551C276.315 341.181 277.065 340.979 277.728 340.6C278.391 340.22 278.944 339.676 279.334 339.019C279.724 338.362 279.938 337.616 279.954 336.852C279.97 336.088 279.788 335.333 279.426 334.661L239.935 261.286C239.556 260.583 238.994 259.995 238.308 259.585C237.623 259.176 236.839 258.959 236.04 258.959C235.241 258.959 234.457 259.176 233.772 259.585C233.086 259.995 232.524 260.583 232.146 261.286L192.634 334.661C192.272 335.335 192.09 336.091 192.107 336.857C192.124 337.622 192.34 338.37 192.732 339.027C193.124 339.684 193.68 340.229 194.346 340.607C195.011 340.985 195.763 341.184 196.529 341.185V341.185ZM241.068 327.777H231.012V317.727H241.068V327.777ZM241.068 311.023H231.012V290.916H241.068V311.023Z" fill="#464353"/>
<path d="M113.254 114.663C113.2 115.676 113.704 116.601 114 117.57C114.488 119.441 114.44 121.412 113.859 123.256C113.317 125.194 112.406 127.243 113.099 129.137C113.259 129.582 113.501 129.989 113.646 130.435C114.247 132.275 113.133 134.213 111.912 135.719L116.703 139.076C117.402 139.656 118.234 140.054 119.124 140.234C120.021 140.34 121.062 139.861 121.246 138.979C121.309 138.679 121.246 138.364 121.304 138.059C121.363 137.664 121.516 137.29 121.749 136.966C121.983 136.642 122.29 136.379 122.646 136.199C123.365 135.846 124.168 135.697 124.966 135.768C127.906 135.928 130.406 137.86 133.08 139.1C134.842 139.864 136.669 140.47 138.539 140.912C139.599 141.188 140.776 141.44 141.735 140.912C142.695 140.384 143.135 139.159 143.063 138.049C142.914 136.946 142.569 135.878 142.045 134.896C141.517 133.915 141.198 132.834 141.111 131.723C141.111 130.096 142.002 128.614 142.302 127.015C142.724 124.743 141.866 122.433 140.82 120.369C139.774 118.306 138.505 116.32 137.996 114.072C137.895 113.391 137.718 112.723 137.468 112.082C137.226 111.594 136.898 111.154 136.499 110.783C134.702 109.006 132.14 108.163 129.631 107.979C127.122 107.795 124.588 108.206 122.099 108.638C121.149 108.773 120.213 108.995 119.304 109.301C118.004 109.818 116.77 110.486 115.627 111.292C114.494 112.077 113.326 113.225 113.254 114.663Z" fill="#464353"/>
<g opacity="0.1">
<path opacity="0.1" d="M141.096 130.73C141.096 130.876 141.096 131.021 141.125 131.161C141.275 129.742 142.021 128.41 142.288 126.991C142.391 126.422 142.421 125.843 142.38 125.266C142.38 125.518 142.331 125.751 142.288 126.022C141.982 127.621 141.077 129.103 141.096 130.73Z" fill="black"/>
<path opacity="0.1" d="M114.324 119.507C114.381 118.527 114.272 117.544 114 116.601C113.713 115.866 113.478 115.111 113.297 114.344C113.297 114.445 113.259 114.542 113.254 114.644C113.2 115.656 113.704 116.581 114 117.55C114.187 118.187 114.296 118.844 114.324 119.507V119.507Z" fill="black"/>
<path opacity="0.1" d="M143.019 137.783C142.985 138.216 142.85 138.635 142.625 139.006C142.399 139.377 142.09 139.69 141.721 139.919C140.752 140.447 139.585 140.195 138.524 139.919C136.654 139.478 134.827 138.87 133.065 138.103C130.391 136.867 127.892 134.935 124.952 134.775C124.153 134.704 123.351 134.853 122.631 135.206C122.275 135.386 121.968 135.649 121.735 135.973C121.501 136.297 121.349 136.671 121.29 137.066C121.256 137.371 121.29 137.686 121.232 137.986C121.043 138.868 120.006 139.347 119.11 139.241C118.219 139.061 117.387 138.663 116.688 138.083L112.382 135.061C112.222 135.279 112.062 135.492 111.897 135.69L116.688 139.052C117.387 139.632 118.219 140.029 119.11 140.21C120.006 140.316 121.047 139.837 121.232 138.955C121.294 138.655 121.231 138.34 121.29 138.035C121.349 137.64 121.501 137.265 121.735 136.942C121.968 136.618 122.275 136.355 122.631 136.175C123.351 135.822 124.153 135.673 124.952 135.744C127.892 135.903 130.391 137.836 133.065 139.071C134.827 139.838 136.654 140.446 138.524 140.888C139.585 141.164 140.762 141.416 141.721 140.888C142.68 140.36 143.121 139.134 143.048 138.025C143.043 137.943 143.029 137.865 143.019 137.783Z" fill="black"/>
<path opacity="0.1" d="M113.646 130.411C113.706 130.605 113.749 130.805 113.777 131.006C113.852 130.482 113.807 129.947 113.646 129.442C113.501 128.996 113.259 128.589 113.099 128.144C112.982 127.82 112.907 127.483 112.876 127.141C112.804 127.807 112.88 128.48 113.099 129.112C113.259 129.558 113.501 129.97 113.646 130.411Z" fill="black"/>
</g>
<path d="M119.333 314.21C119.3 314.348 119.221 314.471 119.11 314.559C118.992 314.62 118.86 314.648 118.727 314.641C117.003 314.68 115.278 314.641 113.559 314.762C111.931 314.903 110.299 315.246 108.676 315.062C108.157 315.081 107.645 314.937 107.211 314.652C106.777 314.366 106.443 313.953 106.254 313.469C106.152 313.258 106.061 313.041 105.983 312.82C105.536 311.678 105.311 310.461 105.32 309.235C105.32 308.911 105.32 308.596 105.32 308.267C105.298 307.912 105.251 307.559 105.179 307.211C105.032 306.812 105.05 306.371 105.227 305.985C105.915 304.731 107.577 304.479 108.856 304.382C111.818 304.159 114.797 304.377 117.696 305.031C117.923 306.145 118.18 307.249 118.451 308.354C118.651 309.164 118.864 309.972 119.091 310.776C119.242 311.274 119.365 311.78 119.459 312.292C119.578 312.932 119.535 313.591 119.333 314.21Z" fill="#464353"/>
<path opacity="0.06" d="M119.333 314.21C119.299 314.348 119.221 314.471 119.11 314.559C118.992 314.62 118.86 314.648 118.727 314.641C117.003 314.68 115.278 314.641 113.559 314.762C111.931 314.903 110.299 315.246 108.676 315.062C108.157 315.081 107.645 314.937 107.211 314.652C106.777 314.366 106.443 313.953 106.254 313.469C106.152 313.258 106.061 313.041 105.983 312.82H106.603C108.642 312.82 110.686 312.747 112.726 312.747C113.341 312.747 113.961 312.718 114.571 312.645C115.182 312.573 115.68 312.471 116.238 312.403C117.071 312.323 117.909 312.289 118.747 312.301H119.434C119.56 312.936 119.525 313.592 119.333 314.21Z" fill="black"/>
<path d="M155.008 305.215C154.468 305.845 153.778 306.33 153.002 306.624C149.553 308.078 145.567 307.424 142.007 306.242C141.21 305.946 140.393 305.711 139.561 305.539C138.802 305.433 138.036 305.379 137.269 305.38C136.722 305.38 136.175 305.336 135.627 305.302C134.242 305.215 132.862 305.079 131.486 304.944C130.527 304.873 129.575 304.729 128.638 304.513C128.371 304.444 128.115 304.34 127.877 304.203V304.203C127.674 304.113 127.5 303.968 127.377 303.783C127.253 303.599 127.185 303.383 127.18 303.161C127.218 302.546 127.858 302.192 128.42 301.926C133.404 299.77 138.819 298.836 144.196 298.085C144.743 297.993 145.276 297.831 145.78 297.6C146.386 297.358 146.448 297.755 146.749 298.201C146.891 298.407 147.053 298.599 147.233 298.773C147.817 299.3 148.503 299.702 149.248 299.954C150.556 300.439 151.956 300.57 153.264 301.03C153.659 301.167 154.038 301.349 154.392 301.572C154.705 301.743 154.975 301.982 155.181 302.273C155.387 302.563 155.523 302.897 155.58 303.249C155.637 303.6 155.613 303.96 155.51 304.301C155.406 304.642 155.226 304.954 154.983 305.215H155.008Z" fill="#464353"/>
<path opacity="0.06" d="M155.008 305.215C154.468 305.845 153.778 306.33 153.002 306.624C149.553 308.078 145.567 307.424 142.007 306.242C141.21 305.946 140.393 305.711 139.561 305.539C138.802 305.433 138.036 305.379 137.269 305.38C136.722 305.38 136.175 305.336 135.627 305.302C136.073 304.881 136.528 304.469 136.993 304.072C137.33 303.757 137.719 303.501 138.141 303.316C138.668 303.143 139.229 303.105 139.774 303.205C142.544 303.587 145.034 305.53 147.829 305.36C149.131 305.21 150.391 304.804 151.535 304.164C152.465 303.785 153.294 303.194 153.956 302.439C154.156 302.179 154.309 301.886 154.407 301.572C154.72 301.743 154.989 301.982 155.195 302.273C155.401 302.563 155.538 302.897 155.595 303.249C155.652 303.6 155.628 303.96 155.524 304.301C155.421 304.642 155.241 304.954 154.998 305.215H155.008Z" fill="black"/>
<path d="M154.034 221.034C153.55 222.003 152.93 223.054 151.883 223.354C150.362 223.79 148.899 222.424 148.236 220.99C147.331 218.886 147.161 216.538 147.751 214.325C148.028 213.206 148.449 212.131 148.686 211.007C148.858 210.061 148.961 209.105 148.996 208.144C149.139 206.712 149.105 205.267 148.895 203.843C148.115 199.682 144.535 196.577 143.344 192.489C142.743 190.45 142.772 188.28 142.806 186.153C142.795 185.616 142.85 185.079 142.971 184.555C143.007 184.412 143.055 184.273 143.116 184.138C143.915 182.366 146.284 182.123 147.931 181.092C148.841 180.525 150.91 178.699 151.675 180.365C151.84 180.736 151.964 181.124 152.043 181.523C152.358 183.005 152.232 184.744 152.31 186.144C152.605 191.433 153.923 196.713 153.312 201.973C153.167 202.87 153.095 203.777 153.099 204.686C153.23 206.963 154.654 208.934 155.308 211.114C156.315 214.393 155.506 217.963 154.034 221.034Z" fill="#FBBEBE"/>
<path opacity="0.1" d="M152.067 181.532C151.707 181.402 151.313 181.402 150.953 181.532L147.674 182.501C146.525 182.808 145.405 183.214 144.327 183.717C143.856 183.948 143.41 184.225 142.995 184.545C143.031 184.402 143.08 184.263 143.14 184.129C143.939 182.356 146.308 182.114 147.955 181.082C148.866 180.515 150.934 178.689 151.699 180.355C151.866 180.733 151.989 181.127 152.067 181.532V181.532Z" fill="black"/>
<path d="M152.28 181.164C152.083 181.044 151.86 180.972 151.63 180.954C151.399 180.935 151.167 180.971 150.953 181.058L147.674 182.026C146.525 182.333 145.405 182.74 144.327 183.242C143.755 183.521 143.22 183.869 142.733 184.279C141.203 181.62 140.796 178.466 140.515 175.415C140.36 173.637 140.244 171.854 140.176 170.086C140.1 168.814 140.126 167.538 140.253 166.269C140.437 164.816 140.859 163.397 141.12 161.954C141.276 161.109 141.376 160.254 141.421 159.396C141.546 157.521 141.46 155.638 141.164 153.782C140.882 151.81 140.432 149.865 139.817 147.969C139.507 147.102 139.134 146.264 138.795 145.412L138.679 145.112C138.067 143.549 137.566 141.945 137.182 140.311C137.027 139.643 137.018 138.941 136.504 138.485C136.986 138.427 137.472 138.408 137.957 138.427C138.054 138.427 138.151 138.427 138.248 138.427C140.238 138.552 142.155 139.223 143.789 140.365C145.894 141.883 147.494 144 148.381 146.439C149.403 149.166 149.573 152.13 149.704 155.041C149.965 160.764 150.127 166.489 150.188 172.218C150.188 173.317 150.236 174.489 150.866 175.395C151.043 175.619 151.205 175.853 151.35 176.098C151.578 176.582 151.544 177.12 151.728 177.609C151.863 177.903 152.017 178.187 152.188 178.461C152.405 178.876 152.526 179.335 152.542 179.802C152.558 180.27 152.469 180.736 152.28 181.164Z" fill="#464353"/>
<path d="M120.04 124.307C119.556 124.147 119.071 123.978 118.587 123.823L119.594 123.9C119.762 124.013 119.912 124.15 120.04 124.307Z" fill="#FBBEBE"/>
<path d="M139.875 141.789C139.779 142.118 139.682 142.447 139.575 142.758C139.329 143.553 139.03 144.332 138.679 145.087C138.13 146.329 137.353 147.456 136.388 148.41C136.069 148.746 135.678 149.004 135.245 149.166C134.878 149.26 134.499 149.296 134.121 149.272C132.829 149.272 131.538 149.253 130.246 149.214C129.24 149.225 128.236 149.126 127.252 148.919C126.169 148.623 125.139 148.159 124.201 147.543C120.582 145.305 117.608 141.895 116.334 137.856C116.175 137.342 116.063 136.727 116.417 136.325C116.765 136.041 117.203 135.891 117.652 135.903H117.71C118.751 135.768 119.755 135.424 120.66 134.891C121.246 134.591 121.719 134.108 122.007 133.515C122.203 132.813 122.188 132.068 121.963 131.374L120.888 126.492C120.776 125.71 120.482 124.965 120.03 124.317C120.345 124.428 120.66 124.53 120.999 124.617C123.992 125.426 127.267 124.937 130.202 125.998C131.326 126.41 132.45 127.151 132.789 128.303C133.356 130.241 131.462 132.251 132.004 134.189C132.367 135.506 133.709 136.267 134.91 136.882L135.719 137.294L137.962 138.432L138.272 138.587L138.321 138.611C139.028 138.97 139.774 139.415 140.021 140.176C140.126 140.716 140.076 141.276 139.875 141.789V141.789Z" fill="#FBBEBE"/>
<path opacity="0.1" d="M145.785 153.162C145.703 154.4 145.401 155.614 144.894 156.746C143.921 158.705 143.4 160.857 143.368 163.043C142.995 169.583 140.51 177.367 144.07 182.86C144.157 182.995 144.245 183.131 144.327 183.271C143.755 183.55 143.22 183.898 142.733 184.308C141.203 181.649 140.796 178.495 140.515 175.444C140.36 173.666 140.244 171.883 140.176 170.115C140.1 168.843 140.126 167.567 140.253 166.299C140.437 164.845 140.859 163.426 141.12 161.983C141.276 161.138 141.376 160.283 141.421 159.425C141.546 157.55 141.46 155.667 141.164 153.811C140.882 151.839 140.432 149.894 139.817 147.999C139.507 147.131 139.134 146.293 138.795 145.441L138.679 145.141C138.13 146.382 137.353 147.509 136.388 148.464C136.069 148.799 135.678 149.058 135.245 149.219C134.878 149.313 134.499 149.349 134.121 149.326C132.829 149.326 131.538 149.306 130.246 149.268C129.24 149.279 128.236 149.18 127.252 148.972C126.169 148.677 125.139 148.212 124.201 147.596C120.582 145.359 117.608 141.949 116.334 137.909C116.175 137.395 116.063 136.78 116.417 136.378C116.765 136.094 117.203 135.945 117.652 135.957H117.71L122.069 141.348C122.569 141.919 122.993 142.552 123.329 143.232C123.394 143.46 123.53 143.662 123.716 143.809C123.868 143.878 124.035 143.908 124.201 143.896C128.294 143.896 133.748 143.896 137.841 143.896C137.854 143.171 137.645 142.459 137.24 141.857C137.114 141.886 136.945 141.895 137.206 141.818C136.97 140.245 136.462 138.726 135.705 137.328C135.66 137.231 135.61 137.138 135.555 137.047C135.229 136.567 134.987 136.037 134.838 135.477C135.355 135.312 135.91 135.312 136.427 135.477C137.022 135.734 137.332 136.378 137.594 136.974C137.817 137.458 138.04 137.977 138.238 138.485C138.238 138.539 138.287 138.597 138.306 138.65C138.728 139.652 138.999 140.712 139.11 141.794C139.139 142.191 139.236 142.695 139.565 142.825C139.617 142.849 139.673 142.862 139.73 142.864C140.071 142.739 140.442 142.719 140.794 142.805C141.147 142.891 141.466 143.08 141.711 143.348C142.188 143.894 142.521 144.55 142.68 145.257C142.837 145.963 143.068 146.652 143.368 147.311C143.993 148.502 143.038 149.035 144.167 149.767C144.695 150.057 145.149 150.465 145.494 150.958C145.814 151.646 145.915 152.415 145.785 153.162V153.162Z" fill="black"/>
<path opacity="0.1" d="M117.652 305.05C117.88 306.164 118.136 307.269 118.408 308.373L118.378 308.441C116.165 307.472 113.898 306.46 111.481 306.247C109.238 306.053 106.802 306.658 105.276 308.286C105.255 307.931 105.208 307.578 105.135 307.23C104.989 306.831 105.006 306.39 105.184 306.004C105.872 304.75 107.533 304.498 108.812 304.401C111.774 304.178 114.754 304.397 117.652 305.05Z" fill="black"/>
<path opacity="0.1" d="M136.732 142.743C136.959 142.743 136.877 142.743 136.766 142.782C136.654 142.82 136.47 142.82 136.732 142.743Z" fill="black"/>
<path opacity="0.1" d="M147.257 298.773C145.097 300.149 143.067 301.72 141.193 303.466C140.649 304.049 140 304.524 139.28 304.866C138.536 305.105 137.751 305.186 136.974 305.103C133.927 304.98 130.889 304.679 127.877 304.203V304.203C127.674 304.113 127.5 303.968 127.377 303.783C127.253 303.599 127.185 303.383 127.18 303.161C127.218 302.546 127.858 302.192 128.42 301.926C133.404 299.77 138.819 298.836 144.196 298.085C144.743 297.993 145.276 297.831 145.78 297.6C146.386 297.358 146.448 297.755 146.749 298.201C146.898 298.408 147.069 298.6 147.257 298.773V298.773Z" fill="black"/>
<path d="M111.718 137.124C112.43 137.759 113.244 138.272 113.966 138.887C115.903 140.529 117.124 142.825 118.325 145.063C117.613 145.321 116.842 145.373 116.102 145.213C115.721 147.362 115.785 149.566 116.291 151.69C115.322 152.354 114.569 153.289 114.126 154.378C113.781 155.483 113.544 156.618 113.418 157.769C112.721 162.809 112.02 167.85 111.316 172.891C111.302 173.384 111.133 173.861 110.832 174.252C110.697 174.361 110.574 174.482 110.464 174.615C110.315 174.941 110.257 175.301 110.294 175.657C110.265 176.01 110.033 176.432 109.679 176.383C109.507 176.342 109.355 176.243 109.248 176.102C108.894 175.728 108.57 175.326 108.279 174.901C105.421 180.384 104.046 186.294 102.534 192.291C101.454 196.563 100.374 200.884 100.321 205.291C100.335 207.377 100.466 209.46 100.713 211.53L101.139 215.783C101.483 219.203 101.827 222.627 102.2 226.047C102.442 228.217 102.684 230.407 103.464 232.451C104.627 235.556 103.338 239.058 103.832 242.342C104.22 244.914 104.99 247.573 104.215 250.053C103.905 251.046 103.363 251.952 102.956 252.911C101.958 255.294 101.856 257.944 101.769 260.526C101.612 262.789 101.697 265.062 102.021 267.307C102.437 269.627 103.372 271.899 103.188 274.243C102.932 277.581 100.471 280.434 100.171 283.766C99.9332 286.426 101.101 288.993 102.355 291.352C103.28 293.091 101.992 295.338 101.503 297.252C100.534 301.001 102.147 304.924 104.123 308.252C104.173 308.366 104.263 308.459 104.375 308.513C104.603 308.596 104.806 308.373 104.956 308.184C106.443 306.276 109.078 305.554 111.495 305.762C113.912 305.97 116.175 306.968 118.393 307.956L121.537 300.957C122.069 299.77 122.612 298.487 122.346 297.213C122.157 296.302 121.571 295.532 121.154 294.699C120.185 292.732 120.137 290.441 120.127 288.237L120.069 275.789C122.52 272.708 124.017 269.046 124.961 265.219C126.41 270.602 126.51 276.258 125.252 281.688C125.019 282.509 124.857 283.349 124.768 284.197C124.579 287.651 127.286 290.572 128.008 293.953C128.078 294.212 128.098 294.481 128.066 294.747C127.985 295.075 127.849 295.386 127.664 295.668C126.366 298.022 126.506 300.875 126.695 303.558C130.092 304.15 133.524 304.517 136.969 304.658C137.746 304.735 138.53 304.655 139.275 304.42C139.995 304.076 140.644 303.6 141.188 303.016C143.387 300.947 145.802 299.12 148.391 297.566C146.945 295.168 144.922 293.17 142.506 291.754C143.285 290.606 145.063 290.698 146.1 289.778C146.62 289.263 146.96 288.593 147.069 287.869C147.456 285.97 146.976 283.994 146.497 282.129C145.567 278.458 144.632 274.771 143.106 271.303C142.416 269.878 141.808 268.414 141.285 266.919C140.016 262.744 140.902 258.201 139.943 253.933C139.633 252.567 139.134 251.158 139.483 249.797C140.016 247.699 142.389 246.454 142.913 244.352C144.787 236.868 145.121 229.113 146.187 221.475C146.425 220.015 146.553 218.54 146.57 217.062C146.57 215.517 146.294 213.986 146.182 212.446C145.746 206.28 147.718 200.128 147.214 193.967C146.891 190.17 145.64 186.51 143.571 183.31C140.011 177.812 142.496 170.033 142.869 163.494C142.897 161.307 143.417 159.155 144.39 157.197C144.902 156.066 145.205 154.851 145.286 153.613C145.435 152.849 145.34 152.057 145.015 151.35C144.674 150.855 144.221 150.446 143.692 150.159C142.564 149.423 143.518 148.89 142.893 147.698C142.593 147.04 142.362 146.351 142.205 145.644C142.047 144.939 141.714 144.284 141.237 143.741C140.992 143.473 140.672 143.283 140.32 143.197C139.967 143.111 139.596 143.132 139.255 143.256C138.795 143.256 138.669 142.646 138.631 142.186C138.5 140.5 137.802 138.916 137.119 137.366C136.858 136.771 136.548 136.126 135.952 135.87C135.433 135.707 134.877 135.707 134.358 135.87C134.508 136.431 134.752 136.964 135.08 137.444C135.92 138.917 136.478 140.533 136.727 142.21C136.243 142.355 137.211 142.21 136.727 142.21C137.161 142.814 137.384 143.545 137.361 144.288C133.273 144.288 127.819 144.288 123.726 144.288C123.56 144.301 123.393 144.271 123.242 144.201C123.055 144.054 122.918 143.852 122.849 143.625C122.516 142.944 122.093 142.312 121.59 141.745L116.795 135.831C116.688 135.676 116.547 135.549 116.383 135.458C116.185 135.402 115.975 135.402 115.777 135.458C114.222 135.686 113.074 136.335 111.718 137.124Z" fill="#004A62"/>
<path opacity="0.1" d="M128.928 217.26C129.755 217.249 130.57 217.46 131.287 217.871C131.643 218.08 131.939 218.379 132.144 218.738C132.35 219.096 132.459 219.502 132.46 219.915C132.406 220.83 131.704 221.557 131.195 222.337C130.88 222.812 130.63 223.327 130.449 223.868C130.394 223.99 130.38 224.128 130.411 224.26C130.469 224.444 130.667 224.536 130.837 224.618C131.453 224.897 131.979 225.342 132.357 225.903C132.734 226.465 132.947 227.12 132.973 227.796C132.929 229.685 131.084 231.216 131.186 233.124C131.232 233.521 131.3 233.916 131.389 234.306C131.611 235.933 131.385 237.589 130.735 239.097C130.149 240.617 129.35 242.046 128.72 243.553C127.02 247.646 126.652 252.18 126.783 256.631C126.884 259.654 125.814 262.531 124.845 265.408C125.392 259.613 125.538 253.786 125.281 247.97C125.213 246.391 125.015 244.899 125.087 243.316C125.203 240.802 126.608 238.515 126.967 236.05C127.17 234.64 127.034 233.206 127.068 231.782C127.136 228.876 127.926 226.008 127.979 223.092C128.047 221.034 127.858 218.912 128.928 217.26Z" fill="black"/>
<path d="M108.715 138.161C107.752 138.641 106.851 139.236 106.032 139.934C105.175 140.784 104.459 141.765 103.91 142.84C103.241 144.058 102.641 145.313 102.113 146.599C101.43 148.265 100.863 150.11 101.333 151.849C101.759 153.424 102.965 154.649 103.799 156.049C104.632 157.449 105.121 159.091 105.76 160.626C106.613 162.675 107.78 164.584 108.623 166.638C109.466 168.691 109.974 170.997 109.442 173.133C109.287 173.763 108.265 174.252 108.265 174.896C108.265 175.962 109.805 177.12 110.827 177.43C112.004 177.793 113.288 177.25 114.252 176.461C116.02 175.061 117.095 172.964 117.889 170.852C119.168 167.461 119.851 163.862 120.466 160.287C120.912 157.662 121.328 155.032 121.566 152.387C121.784 150.004 121.852 147.543 121.222 145.257C120.634 143.158 119.491 141.257 117.913 139.754C116.654 138.543 114.591 136.916 112.76 136.872C111.311 136.867 109.955 137.478 108.715 138.161Z" fill="#464353"/>
<path d="M122.486 196.553C122.433 196.884 122.31 197.2 122.123 197.478C121.937 197.757 121.692 197.991 121.406 198.166C120.834 198.513 120.211 198.769 119.56 198.922C118.262 199.3 116.887 199.648 115.574 199.314C114.542 198.978 113.59 198.436 112.774 197.721L98.107 186.492C96.9288 185.657 95.8454 184.696 94.8762 183.625C94.3198 182.934 93.8085 182.207 93.3455 181.45C92.7326 180.583 92.2526 179.63 91.9215 178.621C91.8032 178.177 91.7446 177.72 91.7471 177.26C91.7432 176.826 91.8499 176.397 92.0571 176.015C92.4107 175.424 93.1663 175.303 93.7863 175.139C95.8673 174.601 98.0273 174.437 100.166 174.654C100.354 174.645 100.539 174.697 100.695 174.803C100.85 174.909 100.967 175.062 101.028 175.24C101.352 175.836 101.633 176.456 101.924 177.076C102.37 178.133 102.951 179.128 103.653 180.036C104.33 180.771 105.049 181.465 105.809 182.114C107.359 183.567 108.628 185.311 110.28 186.648C112.193 188.193 114.518 189.118 116.698 190.256C118.877 191.394 121.028 192.872 122.123 195.076C122.377 195.526 122.502 196.037 122.486 196.553Z" fill="#FBBEBE"/>
<path opacity="0.1" d="M139.464 118.219C139.464 121.277 138.297 124.22 136.199 126.445C134.102 128.671 131.234 130.012 128.181 130.193C125.128 130.374 122.122 129.383 119.776 127.42C117.43 125.458 115.922 122.674 115.561 119.638C115.2 116.601 116.012 113.541 117.832 111.083C119.652 108.626 122.342 106.956 125.352 106.416C128.363 105.876 131.465 106.506 134.026 108.178C136.587 109.849 138.413 112.436 139.129 115.409C139.352 116.329 139.464 117.272 139.464 118.219V118.219Z" fill="black"/>
<path d="M139.464 117.734C139.464 120.792 138.297 123.735 136.199 125.961C134.102 128.187 131.234 129.527 128.181 129.709C125.128 129.89 122.122 128.898 119.776 126.936C117.43 124.974 115.922 122.19 115.561 119.153C115.2 116.116 116.012 113.056 117.832 110.599C119.652 108.141 122.342 106.472 125.352 105.932C128.363 105.392 131.465 106.022 134.026 107.693C136.587 109.365 138.413 111.952 139.129 114.925C139.352 115.845 139.464 116.788 139.464 117.734V117.734Z" fill="#FBBEBE"/>
<path opacity="0.1" d="M101.924 177.057C101.372 177.41 100.553 177.294 99.8702 177.139C97.177 176.538 94.2029 176.107 91.7471 177.26C91.7432 176.826 91.8499 176.397 92.0571 176.015C92.4107 175.424 93.1663 175.303 93.7863 175.139C95.8673 174.601 98.0273 174.437 100.166 174.654C100.354 174.645 100.539 174.697 100.695 174.803C100.85 174.909 100.967 175.062 101.028 175.24C101.352 175.817 101.633 176.437 101.924 177.057Z" fill="black"/>
<path d="M96.8622 160.747C96.2664 162.685 95.7771 164.676 94.6098 166.318C94.2238 166.75 93.9333 167.258 93.7573 167.81C93.744 168.217 93.6772 168.621 93.5587 169.011C93.394 169.34 93.0452 169.558 92.9047 169.897C92.6965 170.382 92.9677 171.007 92.6916 171.462C92.5623 171.645 92.4074 171.808 92.2315 171.946C91.5727 172.557 91.408 173.53 91.3935 174.431C91.3789 175.332 91.4661 176.253 91.1707 177.1C93.7282 175.574 96.9833 176.03 99.8896 176.679C100.698 176.858 101.701 176.994 102.224 176.345C102.747 175.696 102.447 174.843 102.52 174.063C102.617 173.046 103.314 172.203 103.745 171.278C104.23 170.237 104.394 169.074 104.767 167.989C105.537 165.708 107.189 163.848 108.25 161.692C108.643 160.951 108.877 160.136 108.938 159.299C108.901 158.215 108.618 157.153 108.11 156.194C107.101 153.962 105.902 151.821 104.525 149.796C103.91 148.89 102.849 147.214 101.895 148.662C101.12 149.829 100.636 151.317 100.064 152.595C98.8322 155.245 97.763 157.968 96.8622 160.747Z" fill="#464353"/>
<path d="M140.568 141.944C139.114 142.044 137.655 141.818 136.299 141.283C134.943 140.747 133.724 139.915 132.731 138.849C132.563 138.696 132.443 138.5 132.382 138.282C132.354 137.998 132.434 137.715 132.605 137.487C133.186 136.591 134.189 136 134.654 135.036C135.119 134.073 134.959 132.963 135.003 131.907C135.08 130.013 135.826 128.139 135.889 126.274C135.911 125.797 135.876 125.318 135.782 124.85C135.559 124.154 135.423 123.433 135.375 122.704C135.438 121.285 136.717 120.18 136.93 118.781C137.206 116.998 135.729 115.448 134.242 114.421C133.108 113.635 131.877 112.998 130.58 112.527C129.783 112.242 128.958 112.042 128.119 111.931C126.555 111.72 124.963 111.898 123.484 112.45C122.872 112.681 122.292 112.99 121.759 113.37C121.442 113.571 121.178 113.845 120.989 114.169C120.834 114.535 120.764 114.931 120.786 115.327C120.757 117.308 120.98 119.415 120.035 121.139C119.551 122.065 118.727 122.815 118.325 123.794C118.161 124.201 118.058 124.63 118.02 125.068C117.972 125.522 117.947 125.978 117.947 126.434C117.918 128.986 117.947 131.68 119.246 133.893C119.704 134.563 120.119 135.26 120.49 135.981C120.67 136.346 120.754 136.751 120.732 137.157C120.711 137.563 120.586 137.957 120.369 138.301C120.107 138.615 119.775 138.864 119.401 139.028C118.439 139.489 117.392 139.747 116.326 139.786C115.26 139.824 114.198 139.642 113.205 139.251C114.366 138.151 115.163 136.723 115.49 135.158C115.817 133.593 115.659 131.965 115.036 130.493C114.686 129.898 114.459 129.239 114.368 128.555C114.416 127.939 114.581 127.338 114.852 126.783C115.516 124.962 115.619 122.985 115.148 121.106C114.852 119.953 114.339 118.839 114.247 117.652C114.17 116.756 114.209 115.854 114.363 114.968C114.628 113.384 115.327 111.903 116.381 110.69C117.435 109.477 118.803 108.579 120.335 108.095C120.582 108.013 120.82 107.935 121.091 107.867C122.266 107.606 123.467 107.478 124.671 107.485C127.359 107.398 130.086 107.32 132.677 108.022C134.199 108.421 135.614 109.148 136.824 110.154C137.682 110.875 138.368 111.781 138.829 112.803C139.081 113.392 139.271 114.006 139.396 114.634C139.507 115.152 139.59 115.676 139.672 116.199C140.258 119.924 140.844 123.721 140.219 127.441C139.972 128.894 139.541 130.348 139.347 131.83C138.878 135.245 139.725 138.64 140.568 141.944Z" fill="#464353"/>
<path d="M123.358 146.729C123.856 146.729 124.259 146.326 124.259 145.828C124.259 145.331 123.856 144.928 123.358 144.928C122.86 144.928 122.457 145.331 122.457 145.828C122.457 146.326 122.86 146.729 123.358 146.729Z" fill="white"/>
<path d="M138.563 146.303C139.06 146.303 139.464 145.9 139.464 145.402C139.464 144.905 139.06 144.501 138.563 144.501C138.065 144.501 137.662 144.905 137.662 145.402C137.662 145.9 138.065 146.303 138.563 146.303Z" fill="white"/>
<path opacity="0.1" d="M123.358 100.296L121.42 96.6394C121.543 96.4931 121.678 96.357 121.822 96.2325C122.102 96.0601 122.43 95.982 122.757 96.0097L123.358 100.296Z" fill="black"/>
<path opacity="0.1" d="M128.701 95.8401L126.506 99.0855L125.257 95.5253C125.79 95.2962 126.367 95.187 126.947 95.2056C127.563 95.3179 128.156 95.5324 128.701 95.8401V95.8401Z" fill="black"/>
<g opacity="0.1">
<path opacity="0.1" d="M120.369 137.342C120.107 137.656 119.775 137.905 119.401 138.069C117.683 138.891 115.723 139.054 113.893 138.529C113.68 138.788 113.451 139.032 113.205 139.26C114.198 139.651 115.26 139.834 116.326 139.795C117.392 139.757 118.439 139.499 119.401 139.037C119.775 138.874 120.107 138.625 120.369 138.311C120.536 138.069 120.65 137.795 120.703 137.506C120.757 137.217 120.748 136.92 120.679 136.635C120.631 136.891 120.525 137.133 120.369 137.342Z" fill="black"/>
<path opacity="0.1" d="M115.114 121.12C115.272 121.755 115.364 122.404 115.39 123.058C115.446 122.08 115.353 121.101 115.114 120.151C114.818 118.999 114.305 117.884 114.213 116.698C114.213 116.548 114.213 116.397 114.189 116.242C114.165 116.717 114.173 117.193 114.213 117.666C114.305 118.853 114.818 119.967 115.114 121.12Z" fill="black"/>
<path opacity="0.1" d="M140.185 127.456C140.391 126.175 140.479 124.878 140.447 123.581C140.43 124.555 140.343 125.526 140.185 126.487C139.938 127.94 139.507 129.393 139.314 130.876C139.214 131.671 139.176 132.472 139.202 133.273C139.215 132.795 139.253 132.318 139.314 131.844C139.507 130.362 139.938 128.924 140.185 127.456Z" fill="black"/>
<path opacity="0.1" d="M115.017 129.534C114.763 129.057 114.559 128.555 114.407 128.037C114.365 128.212 114.346 128.391 114.348 128.57C114.44 129.254 114.667 129.913 115.017 130.507C115.372 131.319 115.578 132.189 115.622 133.075C115.71 131.863 115.502 130.648 115.017 129.534V129.534Z" fill="black"/>
<path opacity="0.1" d="M135.782 124.83C135.825 125.051 135.856 125.275 135.874 125.499C135.874 125.426 135.874 125.358 135.874 125.286C135.897 124.809 135.861 124.33 135.768 123.862C135.661 123.353 135.487 122.849 135.405 122.336C135.381 122.451 135.366 122.567 135.361 122.685C135.413 123.414 135.555 124.135 135.782 124.83V124.83Z" fill="black"/>
<path opacity="0.1" d="M132.731 137.86C132.656 137.783 132.587 137.7 132.522 137.613C132.403 137.807 132.354 138.036 132.382 138.262C132.443 138.48 132.563 138.677 132.731 138.829C133.724 139.896 134.943 140.728 136.299 141.263C137.655 141.799 139.114 142.025 140.568 141.924C140.486 141.605 140.403 141.29 140.326 140.956C138.911 141.021 137.499 140.778 136.188 140.243C134.877 139.709 133.697 138.896 132.731 137.86V137.86Z" fill="black"/>
<path opacity="0.1" d="M136.921 117.86C136.918 117.843 136.918 117.825 136.921 117.807C137.197 116.024 135.719 114.474 134.232 113.447C133.098 112.661 131.868 112.024 130.57 111.554C129.774 111.268 128.949 111.068 128.11 110.958C126.545 110.746 124.953 110.924 123.474 111.476C122.862 111.707 122.282 112.016 121.75 112.396C121.433 112.597 121.168 112.871 120.98 113.196C120.824 113.561 120.755 113.957 120.776 114.353C120.776 114.687 120.776 115.022 120.776 115.361V115.322C120.755 114.926 120.824 114.53 120.98 114.164C121.168 113.84 121.433 113.566 121.75 113.365C122.282 112.985 122.862 112.676 123.474 112.445C124.953 111.893 126.545 111.715 128.11 111.926C128.949 112.037 129.774 112.237 130.57 112.522C131.868 112.993 133.098 113.63 134.232 114.416C135.468 115.249 136.683 116.451 136.921 117.86Z" fill="black"/>
<path opacity="0.1" d="M120.035 120.18C119.551 121.106 118.727 121.856 118.325 122.835C118.161 123.242 118.058 123.671 118.02 124.109C117.972 124.562 117.947 125.018 117.947 125.475C117.947 125.886 117.947 126.303 117.947 126.72C117.947 126.628 117.947 126.536 117.947 126.443C117.947 125.987 117.972 125.531 118.02 125.078C118.058 124.64 118.161 124.211 118.325 123.804C118.727 122.835 119.531 122.074 120.035 121.149C120.815 119.696 120.8 118.025 120.786 116.363C120.85 117.678 120.592 118.988 120.035 120.18V120.18Z" fill="black"/>
</g>
<path opacity="0.1" d="M139.362 114.668C139.295 114.763 139.217 114.849 139.129 114.925C138.959 115.065 138.768 115.18 138.563 115.264C137.153 115.874 137.211 113.883 136.475 113.2C136.003 112.852 135.423 112.681 134.838 112.716C133.42 112.645 132.001 112.582 130.58 112.527C128.211 112.44 125.848 112.396 123.484 112.45C122.35 112.469 121.22 112.516 120.093 112.59C118.785 112.677 117.381 112.847 116.267 113.467C115.885 113.677 115.54 113.947 115.245 114.266C114.978 114.557 114.697 114.925 114.329 114.993C114.595 113.408 115.293 111.927 116.347 110.714C117.401 109.501 118.769 108.603 120.301 108.119C122.782 106.272 125.881 105.454 128.95 105.838C132.019 106.221 134.821 107.776 136.771 110.178C137.629 110.9 138.314 111.805 138.776 112.827C139.035 113.419 139.232 114.036 139.362 114.668V114.668Z" fill="black"/>
<path d="M138.563 114.295C137.153 114.905 137.211 112.915 136.475 112.232C136.003 111.883 135.423 111.712 134.838 111.747C129.929 111.424 125.006 111.382 120.093 111.621C118.345 111.738 116.426 111.999 115.249 113.297C114.949 113.627 114.634 114.053 114.184 114.038C114.034 113.07 113.927 112.062 113.854 111.069C113.81 110.697 113.83 110.32 113.912 109.955C114.034 109.538 114.31 109.185 114.45 108.778C114.588 108.261 114.638 107.723 114.595 107.189C114.617 105.213 115.148 103.276 116.137 101.565C117.127 99.8543 118.541 98.4279 120.243 97.4241C120.671 97.2151 121.067 96.9477 121.42 96.6297C121.543 96.4834 121.678 96.3473 121.822 96.2228C122.102 96.0504 122.43 95.9723 122.757 96C122.99 96 123.242 96 123.445 96C124.072 95.931 124.684 95.7676 125.262 95.5156C125.795 95.2865 126.372 95.1774 126.952 95.1959C127.568 95.3083 128.16 95.5227 128.706 95.8304C128.968 95.9567 129.242 96.0557 129.524 96.1259C129.965 96.2276 130.42 96.2228 130.861 96.31C131.575 96.4917 132.253 96.7931 132.866 97.2012C133.598 97.596 134.276 98.0845 134.881 98.6544C135.54 99.407 136.067 100.265 136.441 101.193C137.083 102.474 137.57 103.827 137.894 105.223C138.287 107.228 138.093 109.398 139.023 111.219C139.59 112.362 140.108 113.632 138.563 114.295Z" fill="#FED253"/>
<path opacity="0.1" d="M114.009 112.774C114.009 112.774 124.051 103.639 139.004 111.214C139.004 111.214 122.123 107.373 114.009 112.774Z" fill="black"/>
<path d="M4.59679 159.454C3.23083 157.216 1.17704 155.167 1.49674 152.629C5.25555 153.06 8.82061 152.145 12.2646 150.551C15.7085 148.958 18.9055 146.889 22.1315 144.86C23.4006 144.06 24.6648 143.276 25.9242 142.549C27.9199 141.406 29.901 140.127 31.9306 139.008C34.8369 137.41 37.8013 136.102 41.066 135.85C41.6574 135.804 42.2508 135.789 42.8437 135.807C46.8641 135.884 51.0298 136.964 54.5658 135.162L54.7838 135.046C56.7891 133.947 58.2471 132.077 59.9667 130.561C61.2029 129.492 62.549 128.556 63.9822 127.771C66.593 126.318 69.4218 125.155 72.0908 123.784C72.774 123.432 73.4226 123.017 74.0283 122.544L74.4836 122.181L74.5854 122.094C74.6968 122.002 74.8082 121.91 74.9147 121.813L75.123 121.629L75.3362 121.435L75.5009 121.28L75.7673 121.028L75.7963 120.994L76.2177 120.578L76.3873 120.408L76.6827 120.103L76.8571 119.929C77.1526 119.623 77.4481 119.313 77.7484 119.013C78.0487 118.713 78.4556 118.306 78.8189 117.972L79.1676 117.662L79.2694 117.574L79.5503 117.342L79.6811 117.23L79.9572 117.017L80.0928 116.911C80.2284 116.809 80.3689 116.712 80.5094 116.615C80.6386 116.526 80.7747 116.446 80.9163 116.378L80.0105 114.184L82.6164 113.108L118.558 200.322L115.947 201.397L95.3896 151.505L95.2443 151.651C90.4822 156.35 84.649 159.821 78.2473 161.765H78.2086C74.629 162.845 70.6231 163.61 67.6102 165.616C66.5419 166.31 65.6136 167.199 64.8735 168.236C64.1663 169.244 63.6722 170.392 62.9359 171.36C62.7955 171.54 62.6405 171.714 62.4855 171.879C61.6046 172.752 60.6299 173.525 59.5792 174.184L59.119 174.499C55.9982 176.695 52.7468 178.699 49.3829 180.501C47.4417 181.511 45.4177 182.354 43.3329 183.019C41.8168 183.504 40.2523 183.857 38.7361 184.337C37.7163 184.646 36.7259 185.045 35.7766 185.529C33.2093 186.87 31.2379 188.973 29.373 191.215C27.7406 193.182 26.1906 195.265 24.3984 197.057C23.2746 198.171 21.5647 199.227 20.2085 198.573L19.9324 198.413C19.976 198.341 20.0099 198.268 20.0486 198.19C21.1191 195.948 19.8016 193.177 18.0287 191.38C17.8447 191.191 17.6558 191.007 17.462 190.833C17.2683 190.658 16.9195 190.348 16.6434 190.106C15.1273 188.803 13.5143 187.592 12.4632 185.911C11.6609 184.499 11.1164 182.956 10.855 181.353C10.3706 179.072 10.0461 176.722 8.80608 174.78C7.99232 173.496 6.78136 172.402 5.89978 171.171C5.34252 170.443 4.97619 169.588 4.83414 168.682C4.63554 167.107 5.36696 165.567 5.64306 163.998C5.7252 163.57 5.75932 163.135 5.74478 162.7C5.64359 161.538 5.24854 160.421 4.59679 159.454V159.454Z" fill="url(#paint0_linear)"/>
<path d="M115.033 200.648L117.599 199.591L82.2571 113.844L79.691 114.902L115.033 200.648Z" fill="#D6D8E1"/>
<path d="M9.67314 174.475C10.8889 176.388 11.2135 178.694 11.6833 180.937C11.9439 182.513 12.4801 184.031 13.2673 185.422C14.3038 187.074 15.8878 188.265 17.3748 189.544C17.6461 189.781 17.9174 190.028 18.1789 190.261C18.3678 190.431 18.5567 190.615 18.736 190.794C20.4797 192.562 21.773 195.289 20.7219 197.493C20.6897 197.568 20.6524 197.641 20.6105 197.711C20.6956 197.769 20.7846 197.82 20.8769 197.866C22.2138 198.515 23.8946 197.478 24.999 196.379C26.7622 194.616 28.288 192.572 29.8913 190.639C31.7223 188.43 33.6647 186.362 36.1883 185.044C37.1199 184.567 38.0926 184.175 39.0946 183.872C40.5816 183.388 42.122 183.044 43.6139 182.579C45.6631 181.923 47.6529 181.095 49.5621 180.103C52.8751 178.33 56.0779 176.358 59.1529 174.199L59.6082 173.889C60.6408 173.242 61.5992 172.483 62.4661 171.627C62.6211 171.462 62.7713 171.293 62.9117 171.113C63.6577 170.145 64.1469 169.035 64.8493 168.042C65.5777 167.022 66.4913 166.148 67.5424 165.465C70.5069 163.494 74.4401 162.738 77.9615 161.678H78.0003C84.293 159.763 90.0275 156.351 94.7115 151.733C95.0997 151.409 95.3899 150.983 95.5495 150.503C95.6997 149.82 95.3315 149.142 94.9779 148.541C94.5662 147.834 94.1641 147.127 93.767 146.41C91.9806 143.159 90.3859 139.806 88.9909 136.368C88.6858 135.613 88.3903 134.862 88.1045 134.102C87.3715 132.164 86.703 130.199 86.0992 128.207C85.9006 127.548 85.7068 126.884 85.5228 126.221C85.4888 126.095 85.4501 125.959 85.4162 125.814C84.6121 122.583 83.5368 115.022 80.2236 117.284C79.2382 117.988 78.3219 118.785 77.4868 119.662C76.8426 120.316 76.2129 120.989 75.5493 121.638C75.0088 122.17 74.4379 122.67 73.8394 123.135C73.2321 123.6 72.5836 124.009 71.9019 124.356C69.2717 125.702 66.4913 126.831 63.9289 128.274C62.5179 129.046 61.1929 129.965 59.9764 131.016C58.2859 132.508 56.8521 134.349 54.8806 135.429L54.6675 135.545C51.1897 137.313 47.0966 136.252 43.1392 136.175C42.5576 136.16 41.9756 136.175 41.3954 136.218C38.184 136.461 35.2486 137.749 32.4101 139.323C30.4144 140.428 28.4672 141.677 26.5055 142.806C25.2654 143.518 24.0254 144.288 22.7757 145.078C19.6078 147.073 16.3964 149.166 13.088 150.677C9.69736 152.218 6.19527 153.138 2.49942 152.716C2.18457 155.211 4.19961 157.226 5.5462 159.425C6.19295 160.37 6.58501 161.467 6.6845 162.608C6.7023 163.034 6.67142 163.462 6.59246 163.881C6.32121 165.427 5.6237 166.938 5.79807 168.493C5.93553 169.379 6.29364 170.217 6.8395 170.929C7.68233 172.135 8.86907 173.216 9.67314 174.475Z" fill="#F86D70"/>
<path d="M108.153 184.565C108.153 184.565 112.396 188.265 116.698 190.237C120.999 192.208 118.151 199.28 118.151 199.28C118.151 199.28 113.593 200.326 110.401 195.89C107.209 191.453 108.153 184.565 108.153 184.565Z" fill="#FBBEBE"/>
<path d="M336.802 247.559C336.802 247.559 325.564 262.347 316.239 262.468C306.915 262.589 301.442 268.697 305.869 272.514C310.296 276.331 358.541 270.334 358.541 270.334C358.541 270.334 358.996 252.16 354.816 249.506C350.636 246.852 336.802 247.559 336.802 247.559Z" fill="#444176"/>
<path d="M457.631 265.311C457.631 265.311 459.351 277.024 454.037 285.011C448.723 292.999 463.637 296.079 463.637 296.079C463.637 296.079 474.473 299.097 475.263 288.392C476.052 277.687 475.795 269.501 474.778 268.629C473.761 267.758 472.913 261.737 472.913 261.737L457.631 265.311Z" fill="#444176"/>
<path d="M287.516 287.433C287.516 287.433 287.123 249.55 324.61 234.151L333.314 217.59L337.489 207.418C339.001 203.734 341.38 200.469 344.423 197.9C347.467 195.331 351.085 193.535 354.971 192.664L361.723 191.147L363.811 182.351C364.923 177.649 367.388 173.376 370.901 170.058C374.413 166.741 378.821 164.525 383.578 163.683C387.684 162.921 391.851 162.532 396.027 162.52C397.875 162.548 399.684 163.053 401.279 163.987C402.874 164.921 404.2 166.251 405.129 167.849V167.849C405.129 167.849 440.644 167.456 442.218 186.793C442.218 186.793 445.773 204.545 450.903 207.704C450.903 207.704 459.583 205.732 468.263 218.36L477.733 250.717C477.733 250.717 502.592 273.996 495.093 295.28C495.093 295.28 484.834 309.879 432.748 300.013C432.748 300.013 377.112 316.966 347.497 293.716C347.492 293.745 298.172 303.214 287.516 287.433Z" fill="#A8A8A8"/>
<path opacity="0.1" d="M312.374 281.514C312.374 281.514 320.27 270.465 319.872 262.57C319.475 254.674 321.732 235.444 321.732 235.444" stroke="black" stroke-miterlimit="10"/>
<path opacity="0.1" d="M341.18 251.918C341.18 251.918 349.071 237.319 348.281 229.428C348.281 229.428 356.569 214.412 362.881 215.614" stroke="black" stroke-miterlimit="10"/>
<path opacity="0.1" d="M384.586 210.484C384.586 210.484 406.286 202.593 407.473 196.282" stroke="black" stroke-miterlimit="10"/>
<path opacity="0.1" d="M392.477 228.639C392.477 228.639 415.364 218.379 415.364 215.614H426.8C426.8 215.614 443.376 237.319 441.404 246.789" stroke="black" stroke-miterlimit="10"/>
<path opacity="0.1" d="M419.311 244.42C419.311 244.42 397.214 242.841 389.318 249.157C381.423 255.474 367.221 258.627 367.221 258.627C367.221 258.627 358.933 276.384 355.775 279.538C352.617 282.691 347.487 293.745 347.487 293.745" stroke="black" stroke-miterlimit="10"/>
<path opacity="0.1" d="M419.311 265.336C419.311 265.336 421.675 273.619 424.833 278.356C427.992 283.093 432.724 300.056 432.724 300.056" stroke="black" stroke-miterlimit="10"/>
<path opacity="0.1" d="M456.401 289.405C456.401 289.405 461.409 303.34 465.812 303.476" stroke="black" stroke-miterlimit="10"/>
<path opacity="0.1" d="M423.593 229.588C423.593 229.588 436.604 233.105 442.044 241.625C447.483 250.145 464.098 257.871 464.098 257.871" stroke="black" stroke-miterlimit="10"/>
<path opacity="0.1" d="M429.173 187.611C429.173 187.611 429.173 205.761 434.303 205.761C439.433 205.761 450.879 207.733 450.879 207.733" stroke="black" stroke-miterlimit="10"/>
<path opacity="0.1" d="M404.034 166.056C404.034 166.056 402.721 197.411 396.013 205.529" stroke="black" stroke-miterlimit="10"/>
<g opacity="0.05">
<path opacity="0.05" d="M476.919 250.339L467.449 217.982C458.769 205.354 450.089 207.326 450.089 207.326C444.959 204.168 441.409 186.41 441.409 186.41C439.83 167.074 404.315 167.471 404.315 167.471C403.384 165.87 402.055 164.538 400.457 163.605C398.858 162.671 397.045 162.167 395.194 162.143C393.518 162.143 391.803 162.196 390.089 162.336C391.057 162.433 391.986 162.57 392.874 162.748L395.635 167.485C395.635 167.485 431.145 167.088 432.724 186.425C432.724 186.425 436.279 204.182 441.409 207.34C441.409 207.34 450.089 205.364 458.769 217.997L468.239 250.354C468.239 250.354 493.097 273.633 485.599 294.917C485.599 294.917 480.537 302.12 459.481 302.992C487.871 304.033 494.279 294.917 494.279 294.917C501.778 273.619 476.919 250.339 476.919 250.339Z" fill="black"/>
<path opacity="0.05" d="M338.022 293.347C329.669 294.851 321.222 295.775 312.742 296.113C322.628 296.491 332.912 295.421 339.538 294.51C339.025 294.118 338.521 293.74 338.022 293.347Z" fill="black"/>
<path opacity="0.05" d="M423.254 299.664C411.106 303.071 398.602 305.048 385.995 305.554C404.184 306.213 421.414 302.42 428.515 300.599C426.8 300.313 425.061 299.988 423.254 299.664Z" fill="black"/>
</g>
<path d="M107.945 361.21C107.945 361.21 118.8 360.875 122.069 358.545C125.339 356.216 138.761 353.435 139.575 357.17C140.389 360.904 155.884 375.746 143.629 375.848C131.374 375.949 115.162 373.939 111.897 371.948C108.633 369.958 107.945 361.21 107.945 361.21Z" fill="#A8A8A8"/>
<path opacity="0.2" d="M143.852 374.545C131.597 374.646 115.38 372.636 112.115 370.67C109.631 369.154 108.638 363.719 108.308 361.214H107.945C107.945 361.214 108.633 369.967 111.897 371.953C115.162 373.939 131.379 375.949 143.629 375.853C147.17 375.823 148.391 374.564 148.323 372.699C147.834 373.823 146.482 374.525 143.852 374.545Z" fill="black"/>
<path d="M372.583 333.987C372.583 333.987 359.8 331.43 356.395 328.02C352.99 324.61 337.649 318.652 335.944 322.909C334.239 327.167 312.941 341.655 327.424 344.222C341.907 346.79 361.505 347.613 365.768 345.927C370.03 344.242 372.583 333.987 372.583 333.987Z" fill="#A8A8A8"/>
<path opacity="0.2" d="M327.424 342.614C341.912 345.167 361.505 346.005 365.768 344.314C369.008 343.016 371.265 336.782 372.157 333.881L372.583 333.973C372.583 333.973 370.025 344.193 365.768 345.898C361.51 347.603 341.912 346.751 327.424 344.193C323.244 343.457 322.047 341.723 322.498 339.533C322.856 340.977 324.314 342.076 327.424 342.614Z" fill="black"/>
<path opacity="0.1" d="M250.184 55.6314H247.142C247.707 55.6314 248.249 55.4069 248.649 55.0072C249.049 54.6075 249.273 54.0654 249.273 53.5002C249.273 52.9349 249.049 52.3928 248.649 51.9931C248.249 51.5934 247.707 51.3689 247.142 51.3689H222.497C221.931 51.3689 221.389 51.5934 220.99 51.9931C220.59 52.3928 220.365 52.9349 220.365 53.5002C220.365 54.0654 220.59 54.6075 220.99 55.0072C221.389 55.4069 221.931 55.6314 222.497 55.6314H225.539C224.992 55.6575 224.476 55.8932 224.098 56.2896C223.72 56.686 223.509 57.2126 223.509 57.7603C223.509 58.308 223.72 58.8346 224.098 59.231C224.476 59.6274 224.992 59.8631 225.539 59.8892H221.281C220.716 59.8892 220.174 60.1137 219.774 60.5134C219.374 60.9131 219.15 61.4552 219.15 62.0205C219.15 62.5857 219.374 63.1278 219.774 63.5275C220.174 63.9272 220.716 64.1517 221.281 64.1517H245.926C246.492 64.1517 247.034 63.9272 247.433 63.5275C247.833 63.1278 248.058 62.5857 248.058 62.0205C248.058 61.4552 247.833 60.9131 247.433 60.5134C247.034 60.1137 246.492 59.8892 245.926 59.8892H250.184C250.472 59.9029 250.76 59.858 251.03 59.7573C251.301 59.6565 251.548 59.5019 251.756 59.3028C251.965 59.1038 252.131 58.8645 252.245 58.5993C252.358 58.3342 252.417 58.0487 252.417 57.7603C252.417 57.4719 252.358 57.1864 252.245 56.9213C252.131 56.6561 251.965 56.4168 251.756 56.2178C251.548 56.0187 251.301 55.8641 251.03 55.7634C250.76 55.6626 250.472 55.6177 250.184 55.6314V55.6314Z" fill="#004A62"/>
<path opacity="0.1" d="M345.908 130.619H342.866C343.413 130.593 343.929 130.357 344.307 129.961C344.685 129.564 344.896 129.038 344.896 128.49C344.896 127.942 344.685 127.416 344.307 127.019C343.929 126.623 343.413 126.387 342.866 126.361H318.196C317.908 126.347 317.62 126.392 317.35 126.493C317.08 126.594 316.833 126.748 316.624 126.947C316.415 127.146 316.249 127.386 316.136 127.651C316.022 127.916 315.963 128.202 315.963 128.49C315.963 128.778 316.022 129.064 316.136 129.329C316.249 129.594 316.415 129.833 316.624 130.033C316.833 130.232 317.08 130.386 317.35 130.487C317.62 130.588 317.908 130.633 318.196 130.619H321.238C320.691 130.645 320.175 130.881 319.797 131.277C319.419 131.673 319.209 132.2 319.209 132.748C319.209 133.295 319.419 133.822 319.797 134.218C320.175 134.615 320.691 134.85 321.238 134.877H316.981C316.415 134.877 315.873 135.101 315.473 135.501C315.074 135.901 314.849 136.443 314.849 137.008C314.849 137.573 315.074 138.115 315.473 138.515C315.873 138.915 316.415 139.139 316.981 139.139H341.621C342.186 139.139 342.728 138.915 343.128 138.515C343.528 138.115 343.752 137.573 343.752 137.008C343.752 136.443 343.528 135.901 343.128 135.501C342.728 135.101 342.186 134.877 341.621 134.877H345.908C346.196 134.89 346.484 134.845 346.754 134.745C347.024 134.644 347.271 134.489 347.48 134.29C347.689 134.091 347.855 133.852 347.969 133.587C348.082 133.322 348.141 133.036 348.141 132.748C348.141 132.459 348.082 132.174 347.969 131.909C347.855 131.644 347.689 131.404 347.48 131.205C347.271 131.006 347.024 130.852 346.754 130.751C346.484 130.65 346.196 130.605 345.908 130.619V130.619Z" fill="#004A62"/>
<path opacity="0.1" d="M204.066 116.746H201.024C201.312 116.76 201.6 116.715 201.87 116.614C202.141 116.513 202.388 116.359 202.596 116.16C202.805 115.961 202.971 115.721 203.085 115.456C203.198 115.191 203.257 114.906 203.257 114.617C203.257 114.329 203.198 114.043 203.085 113.778C202.971 113.513 202.805 113.274 202.596 113.075C202.388 112.876 202.141 112.721 201.87 112.62C201.6 112.52 201.312 112.475 201.024 112.488H176.374C176.086 112.475 175.798 112.52 175.527 112.62C175.257 112.721 175.01 112.876 174.801 113.075C174.593 113.274 174.427 113.513 174.313 113.778C174.199 114.043 174.141 114.329 174.141 114.617C174.141 114.906 174.199 115.191 174.313 115.456C174.427 115.721 174.593 115.961 174.801 116.16C175.01 116.359 175.257 116.513 175.527 116.614C175.798 116.715 176.086 116.76 176.374 116.746H179.416C179.128 116.732 178.84 116.777 178.569 116.878C178.299 116.979 178.052 117.133 177.843 117.332C177.635 117.531 177.468 117.771 177.355 118.036C177.241 118.301 177.183 118.587 177.183 118.875C177.183 119.163 177.241 119.449 177.355 119.714C177.468 119.979 177.635 120.218 177.843 120.418C178.052 120.617 178.299 120.771 178.569 120.872C178.84 120.973 179.128 121.018 179.416 121.004H175.153C174.588 121.004 174.046 121.228 173.646 121.628C173.246 122.028 173.022 122.57 173.022 123.135C173.022 123.7 173.246 124.242 173.646 124.642C174.046 125.042 174.588 125.266 175.153 125.266H199.799C200.364 125.266 200.906 125.042 201.306 124.642C201.705 124.242 201.93 123.7 201.93 123.135C201.93 122.57 201.705 122.028 201.306 121.628C200.906 121.228 200.364 121.004 199.799 121.004H204.056C204.344 121.018 204.632 120.973 204.903 120.872C205.173 120.771 205.42 120.617 205.629 120.418C205.837 120.218 206.003 119.979 206.117 119.714C206.231 119.449 206.289 119.163 206.289 118.875C206.289 118.587 206.231 118.301 206.117 118.036C206.003 117.771 205.837 117.531 205.629 117.332C205.42 117.133 205.173 116.979 204.903 116.878C204.632 116.777 204.344 116.732 204.056 116.746H204.066Z" fill="#004A62"/>
</g>
<defs>
<linearGradient id="paint0_linear" x1="-351303" y1="31745.1" x2="-379617" y2="31745.1" gradientUnits="userSpaceOnUse">
<stop stop-color="#808080" stop-opacity="0.25"/>
<stop offset="0.54" stop-color="#808080" stop-opacity="0.12"/>
<stop offset="1" stop-color="#808080" stop-opacity="0.1"/>
</linearGradient>
<clipPath id="clip0">
<rect width="500" height="403.312" fill="white"/>
</clipPath>
</defs>
</svg>
